PathFileType	4	(X/Y/Z)	/Users/itak/Documents/Research/Walk-IL/dataset/trc/00035_00004.trc
DataRate	CameraRate	NumFrames	NumMarkers	Units	OrigDataRate	OrigDataStartFrame	OrigNumFrames
100.000000	100.000000	4	53	mm	100.000000	518	829
Frame#	Time	RPSI			LPSI			L3			STRN			T10			C7			CLAV			RBAK			LBAK			LSHO			LUPA			LAEL			LAOL			LWTS			LWPS			LFRA			LIFD			LHPS			LHTS			RSHO			RUPA			RAEL			RAOL			RWTS			RWPS			RFRA			RIFD			RHTS			RHPS			RBHD			LFHD			RFHD			LBHD			LHIP			RHIP			RASI			LASI			LKNE			LTHI			LANK			LTIP			LTOE			LMT1			LMT5			LHEE			RKNE			RTHI			RANK			RTIP			RTOE			RMT1			RMT5			RHEE			
		X1	Y1	Z1	X2	Y2	Z2	X3	Y3	Z3	X4	Y4	Z4	X5	Y5	Z5	X6	Y6	Z6	X7	Y7	Z7	X8	Y8	Z8	X9	Y9	Z9	X10	Y10	Z10	X11	Y11	Z11	X12	Y12	Z12	X13	Y13	Z13	X14	Y14	Z14	X15	Y15	Z15	X16	Y16	Z16	X17	Y17	Z17	X18	Y18	Z18	X19	Y19	Z19	X20	Y20	Z20	X21	Y21	Z21	X22	Y22	Z22	X23	Y23	Z23	X24	Y24	Z24	X25	Y25	Z25	X26	Y26	Z26	X27	Y27	Z27	X28	Y28	Z28	X29	Y29	Z29	X30	Y30	Z30	X31	Y31	Z31	X32	Y32	Z32	X33	Y33	Z33	X34	Y34	Z34	X35	Y35	Z35	X36	Y36	Z36	X37	Y37	Z37	X38	Y38	Z38	X39	Y39	Z39	X40	Y40	Z40	X41	Y41	Z41	X42	Y42	Z42	X43	Y43	Z43	X44	Y44	Z44	X45	Y45	Z45	X46	Y46	Z46	X47	Y47	Z47	X48	Y48	Z48	X49	Y49	Z49	X50	Y50	Z50	X51	Y51	Z51	X52	Y52	Z52	X53	Y53	Z53	

519	5.18	766.26416015625	1046.650634765625	-241.0848999023438	901.434326171875	1049.602905273438	-336.9126892089844	831.1714477539062	1108.72900390625	-297.7134399414062	954.0390014648438	1297.642333984375	-102.8496856689453	805.6414184570312	1255.046264648438	-305.9286804199219	828.3977661132812	1520.693603515625	-251.1504821777344	924.9764404296875	1424.0546875	-130.3759460449219	738.7326049804688	1378.717407226562	-257.4072265625	894.1879272460938	1491.866577148438	-327.4807434082031	1014.571533203125	1500.934814453125	-292.5791625976562	1046.537475585938	1397.1171875	-392.1895446777344	1038.846557617188	1195.942993164062	-472.144775390625	933.4205932617188	1196.416015625	-455.6825561523438	996.1751098632812	922.4830932617188	-466.1763000488281	988.0115966796875	944.2340087890625	-552.6383666992188	1031.106567382812	1084.674194335938	-507.2431030273438	952.7857055664062	741.9735717773438	-506.389892578125	984.69482421875	848.306884765625	-561.1650390625	995.7831420898438	830.4032592773438	-494.0553894042969	735.7559204101562	1488.596923828125	-90.34807586669922	673.4380493164062	1414.625732421875	-62.26911544799805	650.2958374023438	1140.781127929688	-67.60955810546875	730.389892578125	1117.952270507812	-122.4949645996094	830.1049194335938	965.829345703125	80.29341125488281	754.066650390625	914.0822143554688	78.29454803466797	666.1802368164062	1067.31201171875	-30.5095100402832	927.587646484375	819.6778564453125	141.8292694091797	879.6611938476562	887.520263671875	145.6223907470703	816.304443359375	846.993408203125	138.7239532470703	942.6534423828125	1708.960693359375	-167.6668090820312	828.6685180664062	1660.442626953125	12.88879299163818	925.7474975585938	1670.32861328125	10.29965305328369	799.054443359375	1689.322021484375	-157.2811584472656	1054.445556640625	954.7754516601562	-320.7761840820312	758.0991821289062	922.2113647460938	-96.8626708984375	873.848876953125	963.832275390625	-51.78565979003906	1059.862060546875	1002.034118652344	-190.2471618652344	1141.382080078125	525.704833984375	-163.1473236083984	1129.312744140625	659.55224609375	-233.3658599853516	1046.437622070312	115.339973449707	-458.0298767089844	1099.889526367188	332.4095458984375	-332.2608337402344	1138.887817382812	38.39715957641602	-267.9941711425781	1088.647583007812	57.11032867431641	-294.9915161132812	1141.678344726562	81.7269287109375	-384.2977600097656	965.0142211914062	134.7776031494141	-467.9129028320312	860.4718017578125	495.463134765625	-158.0929107666016	794.627197265625	754.50732421875	-94.60795593261719	887.4542846679688	31.45190620422363	-318.5487365722656	865.7577514648438	374.4249877929688	-194.9007110595703	1039.019897460938	32.30780410766602	-137.4949493408203	1034.3701171875	38.20025634765625	-205.7344512939453	941.2929077148438	33.37090682983398	-178.8698883056641	900.6788940429688	33.19680023193359	-387.3415222167969	
520	5.19	771.4073486328125	1046.330444335938	-237.1271667480469	908.7078857421875	1049.301635742188	-330.1716613769531	837.3152465820312	1108.43994140625	-292.3200988769531	957.2073364257812	1297.119873046875	-95.41275787353516	811.7764892578125	1254.666625976562	-300.0379943847656	834.1442260742188	1520.389770507812	-245.4588623046875	929.0098876953125	1423.595581054688	-123.3728866577148	744.255126953125	1378.641845703125	-252.7935943603516	900.7890014648438	1491.244995117188	-320.8864440917969	1020.792602539062	1500.073974609375	-284.614501953125	1053.35498046875	1396.101684570312	-383.92529296875	1045.244995117188	1195.095825195312	-464.2433166503906	939.7229614257812	1196.060302734375	-448.4469604492188	1000.726135253906	921.7684326171875	-460.4915161132812	993.4443969726562	944.3518676757812	-546.8367309570312	1037.117919921875	1084.130493164062	-500.0030822753906	955.4533081054688	742.2349853515625	-502.8469543457031	989.3926391601562	848.7652587890625	-556.4080810546875	999.536376953125	829.86328125	-489.2564392089844	739.3081665039062	1488.70947265625	-85.85154724121094	676.4857788085938	1414.853149414062	-58.58680725097656	653.3365478515625	1140.749633789062	-63.87257385253906	734.0885620117188	1117.901977539062	-117.8420104980469	833.6900024414062	969.5336303710938	87.89943695068359	758.4158325195312	916.74169921875	85.66908264160156	669.6572875976562	1067.557983398438	-25.83039283752441	932.4510498046875	825.5587768554688	152.6084136962891	883.4902954101562	892.792724609375	154.8933715820312	820.7938232421875	851.2634887695312	147.8373565673828	947.5542602539062	1708.607299804688	-160.8008728027344	831.7804565429688	1660.280517578125	18.58564186096191	928.7608642578125	1670.032836914062	16.95162582397461	803.9000244140625	1689.117919921875	-151.826904296875	1061.31640625	954.4219360351562	-310.5388488769531	759.5685424804688	921.7269897460938	-93.21626281738281	874.5267333984375	963.1719970703125	-45.76704025268555	1063.562744140625	1001.54296875	-180.0598907470703	1144.831420898438	527.1548461914062	-146.9901885986328	1134.81591796875	660.0338745117188	-219.0294189453125	1067.388427734375	105.8716659545898	-432.1911010742188	1112.444946289062	328.5536804199219	-311.4680786132812	1154.466552734375	38.38007354736328	-235.1313629150391	1104.8701171875	54.83274841308594	-264.8995666503906	1160.73828125	77.41733551025391	-352.7376708984375	986.4402465820312	123.4882583618164	-445.0460205078125	860.949951171875	494.803466796875	-156.4420928955078	795.6673583984375	753.8367309570312	-91.87798309326172	887.34521484375	31.5317554473877	-318.6432800292969	866.2542724609375	374.1604614257812	-193.8591003417969	1039.007934570312	32.26484680175781	-137.4790802001953	1034.339477539062	38.19968795776367	-205.6464080810547	941.3309936523438	33.35049819946289	-178.8955230712891	900.5767822265625	33.43519592285156	-387.3890686035156	
521	5.2	776.5062255859375	1045.92919921875	-233.0428619384766	915.874755859375	1048.8955078125	-323.3706665039062	843.3713989257812	1108.10546875	-286.8338928222656	960.3226928710938	1296.484619140625	-87.95333099365234	817.8399047851562	1254.1796875	-294.0143127441406	839.8736572265625	1519.993286132812	-239.683837890625	933.0007934570312	1423.015258789062	-116.3184661865234	749.7692260742188	1378.476440429688	-248.1210021972656	907.3885498046875	1490.536010742188	-314.1979370117188	1026.972900390625	1499.1103515625	-276.5375061035156	1060.200805664062	1394.970825195312	-375.5267639160156	1051.817260742188	1194.10400390625	-456.1665344238281	946.1972045898438	1195.518432617188	-441.1094360351562	1005.640258789062	920.9282836914062	-454.533203125	999.3162231445312	944.28515625	-540.7666015625	1043.410034179688	1083.421264648438	-492.5340881347656	958.6817626953125	742.3214721679688	-498.9777526855469	994.5746459960938	849.03662109375	-551.3309326171875	1003.746459960938	829.179931640625	-484.1333923339844	742.8491821289062	1488.705078125	-81.30745697021484	679.5684814453125	1414.961303710938	-54.8305549621582	656.4111938476562	1140.609375	-60.13890838623047	737.885986328125	1117.715209960938	-113.2461395263672	837.0494995117188	972.9324340820312	95.31671142578125	762.4995727539062	919.1832275390625	92.85713195800781	673.0648803710938	1067.683837890625	-21.22688484191895	936.8553466796875	831.0521240234375	163.0954437255859	886.9879760742188	897.7046508789062	163.9146270751953	824.9093017578125	855.2493896484375	156.7168884277344	952.4130859375	1708.15478515625	-153.864013671875	834.83984375	1660.005981445312	24.32618141174316	931.7413330078125	1669.644775390625	23.6674976348877	808.7136840820312	1688.80224609375	-146.3202056884766	1067.946655273438	953.940673828125	-300.3609313964844	761.1657104492188	921.1873779296875	-89.52384185791016	875.2896118164062	962.4281616210938	-39.76525497436523	1067.151977539062	1000.924499511719	-169.9831848144531	1147.969116210938	528.5183715820312	-131.0278930664062	1140.053588867188	660.4301147460938	-204.8883056640625	1087.609375	97.13284301757812	-404.75634765625	1124.5146484375	324.7951049804688	-290.1184692382812	1167.830810546875	38.55961608886719	-201.3637542724609	1119.18994140625	52.88007354736328	-233.9508361816406	1178.304565429688	73.26361083984375	-320.0246887207031	1007.370239257812	112.8351211547852	-421.1468811035156	861.7127075195312	494.1748046875	-154.4607543945312	796.7967529296875	753.1474609375	-88.96907043457031	887.2426147460938	31.62211036682129	-318.7296752929688	866.9732055664062	373.8376159667969	-192.4931640625	1039.007446289062	32.20820236206055	-137.4591979980469	1034.348999023438	38.1636848449707	-205.5706024169922	941.3780517578125	33.3264274597168	-178.8982543945312	900.50341796875	33.69303512573242	-387.4150390625	
522	5.21	781.5433349609375	1045.455932617188	-228.8094940185547	922.831298828125	1048.380859375	-316.5223388671875	849.3243408203125	1107.726440429688	-281.244873046875	963.3876342773438	1295.742065429688	-80.46851348876953	823.8265380859375	1253.604370117188	-287.8970336914062	845.589599609375	1519.510864257812	-233.8156433105469	936.9409790039062	1422.321411132812	-109.2155075073242	755.276611328125	1378.229736328125	-243.3867950439453	913.9900512695312	1489.752563476562	-307.4111328125	1033.11767578125	1498.052978515625	-268.3407592773438	1067.069702148438	1393.72705078125	-366.9756164550781	1058.555419921875	1192.979858398438	-447.9058227539062	952.8399047851562	1194.803833007812	-433.6678466796875	1010.915710449219	919.9707641601562	-448.2742614746094	1005.616088867188	944.0322265625	-534.4017944335938	1049.972045898438	1082.550048828125	-484.8237915039062	962.5426025390625	742.2074584960938	-494.7228698730469	1000.234191894531	849.0750732421875	-545.8722534179688	1008.435791015625	828.3590087890625	-478.6430969238281	746.377197265625	1488.590576171875	-76.71434783935547	682.6766967773438	1414.953491210938	-51.00090026855469	659.5374755859375	1140.367919921875	-56.38491439819336	741.77001953125	1117.413818359375	-108.6805725097656	840.19140625	976.003173828125	102.5525817871094	766.3184814453125	921.3837280273438	99.85498046875	676.4089965820312	1067.694946289062	-16.68793869018555	940.8106689453125	836.103271484375	173.2535400390625	890.1685180664062	902.2106323242188	172.6728820800781	828.6605834960938	858.9144897460938	165.333740234375	957.234130859375	1707.603881835938	-146.8520965576172	837.853759765625	1659.627685546875	30.12078094482422	934.693359375	1669.170166015625	30.45438194274902	813.49853515625	1688.37841796875	-140.7534027099609	1074.337036132812	953.3518676757812	-290.2828063964844	762.9230346679688	920.6012573242188	-85.76361846923828	876.1678466796875	961.6090087890625	-33.76495361328125	1070.65283203125	1000.19873046875	-160.0396575927734	1150.822143554688	529.7891235351562	-115.3032455444336	1145.029541015625	660.751708984375	-190.9701080322266	1107.046630859375	89.26448822021484	-375.6592712402344	1136.045776367188	321.1786804199219	-268.2793884277344	1179.071411132812	38.96843719482422	-166.9328155517578	1131.689819335938	51.28705596923828	-202.3159332275391	1194.3505859375	69.34217071533203	-286.3309631347656	1027.673706054688	102.8531951904297	-396.2433166503906	862.7410888671875	493.576904296875	-152.1521606445312	798.0467529296875	752.4393920898438	-85.84812164306641	887.1543579101562	31.7253360748291	-318.800537109375	867.8890991210938	373.4617309570312	-190.816162109375	1039.026611328125	32.13769912719727	-137.4349517822266	1034.401733398438	38.08787536621094	-205.5220184326172	941.4185180664062	33.3059196472168	-178.8753814697266	900.47119140625	33.96680068969727	-387.423095703125	
